<svg width="14" height="14" viewBox="0 0 14 14" fill="none" xmlns="http://www.w3.org/2000/svg">
<g id="&#234;&#183;&#184;&#235;&#163;&#185; 97115">
<path id="&#237;&#140;&#168;&#236;&#138;&#164; 87223" d="M5.03296 0.282993L10.25 6.26899C10.408 6.43671 10.4972 6.65767 10.5 6.88807C10.5027 7.11847 10.4189 7.34151 10.265 7.51299L5.17396 13.715C5.09077 13.8029 4.99086 13.8733 4.8801 13.922C4.76934 13.9708 4.64996 13.997 4.52896 13.999C4.40983 13.9986 4.29199 13.9743 4.18241 13.9276C4.07282 13.8809 3.97372 13.8127 3.89096 13.727C3.72699 13.5589 3.63452 13.3338 3.63296 13.099V13.086C3.63063 12.8625 3.71154 12.6461 3.85996 12.479L8.38696 6.91899L3.74296 1.53999C3.58684 1.36718 3.50117 1.14213 3.50283 0.909243C3.5045 0.676359 3.59339 0.452558 3.75196 0.281993C3.83406 0.193857 3.93321 0.123324 4.0434 0.0746765C4.15359 0.0260286 4.27251 0.000279427 4.39296 -0.00100708C4.51311 4.19617e-05 4.63179 0.0254908 4.7418 0.0737944C4.85182 0.122098 4.95087 0.19225 5.03296 0.279993" fill="#999999"/>
</g>
</svg>
