<svg width="18" height="18" viewBox="0 0 18 18" fill="none" xmlns="http://www.w3.org/2000/svg">
<g id="board-icon">
<path id="&#237;&#140;&#168;&#236;&#138;&#164; 11403" d="M14.063 1.27044e-07H3.938C3.42082 -0.000131254 2.90868 0.101638 2.43084 0.299495C1.953 0.497351 1.51882 0.787417 1.15312 1.15312C0.787417 1.51882 0.497351 1.953 0.299495 2.43084C0.101638 2.90868 -0.000131254 3.42082 1.27044e-07 3.938V14.063C1.10364e-07 14.5801 0.101867 15.0921 0.299782 15.5699C0.497697 16.0476 0.787784 16.4816 1.15347 16.8472C1.51916 17.2128 1.95329 17.5028 2.43107 17.7006C2.90884 17.8984 3.4209 18.0001 3.938 18H14.063C15.1072 18 16.1085 17.5852 16.8469 16.8469C17.5852 16.1085 18 15.1072 18 14.063V3.938C18.0001 3.4209 17.8984 2.90884 17.7006 2.43107C17.5028 1.95329 17.2128 1.51916 16.8472 1.15347C16.4816 0.787784 16.0476 0.497697 15.5699 0.299782C15.0921 0.101867 14.5801 1.10364e-07 14.063 1.27044e-07ZM16.875 14.063C16.875 14.8088 16.5787 15.524 16.0514 16.0514C15.524 16.5787 14.8088 16.875 14.063 16.875H3.938C3.56864 16.8751 3.20287 16.8025 2.86159 16.6612C2.5203 16.52 2.21019 16.3129 1.94897 16.0517C1.68775 15.7906 1.48053 15.4806 1.33915 15.1393C1.19777 14.7981 1.125 14.4324 1.125 14.063V3.938C1.12487 3.56855 1.19754 3.2027 1.33886 2.86136C1.48018 2.52001 1.68738 2.20985 1.94862 1.94862C2.20985 1.68738 2.52001 1.48018 2.86136 1.33886C3.2027 1.19754 3.56855 1.12487 3.938 1.125H14.063C14.4324 1.125 14.7981 1.19777 15.1393 1.33915C15.4806 1.48053 15.7906 1.68775 16.0517 1.94897C16.3129 2.21019 16.52 2.5203 16.6612 2.86159C16.8025 3.20287 16.8751 3.56864 16.875 3.938V14.063Z" fill="#646464"/>
<path id="&#237;&#140;&#168;&#236;&#138;&#164; 11404" d="M5.632 3.93201H4.495C4.34436 3.93201 4.19988 3.99185 4.09336 4.09837C3.98684 4.20489 3.927 4.34936 3.927 4.50001V5.632C3.927 5.78265 3.98684 5.92712 4.09336 6.03365C4.19988 6.14017 4.34436 6.2 4.495 6.2H5.632C5.78264 6.2 5.92712 6.14017 6.03364 6.03365C6.14016 5.92712 6.2 5.78265 6.2 5.632V4.49501C6.19868 4.34524 6.13825 4.20204 6.03188 4.0966C5.9255 3.99115 5.78178 3.932 5.632 3.93201Z" fill="#646464"/>
<path id="&#237;&#140;&#168;&#236;&#138;&#164; 11405" d="M5.632 7.86301H4.495C4.34436 7.86301 4.19988 7.92285 4.09336 8.02937C3.98684 8.13589 3.927 8.28036 3.927 8.431V9.563C3.927 9.71365 3.98684 9.85812 4.09336 9.96465C4.19988 10.0712 4.34436 10.131 4.495 10.131H5.632C5.78264 10.131 5.92712 10.0712 6.03364 9.96465C6.14016 9.85812 6.2 9.71365 6.2 9.563V8.42601C6.19868 8.27624 6.13825 8.13304 6.03188 8.0276C5.9255 7.92216 5.78178 7.863 5.632 7.86301Z" fill="#646464"/>
<path id="&#237;&#140;&#168;&#236;&#138;&#164; 11406" d="M5.632 11.795H4.495C4.34436 11.795 4.19988 11.8548 4.09336 11.9614C3.98684 12.0679 3.927 12.2124 3.927 12.363V13.495C3.927 13.6457 3.98684 13.7901 4.09336 13.8966C4.19988 14.0032 4.34436 14.063 4.495 14.063H5.632C5.78264 14.063 5.92712 14.0032 6.03364 13.8966C6.14016 13.7901 6.2 13.6457 6.2 13.495V12.358C6.19868 12.2082 6.13825 12.065 6.03188 11.9596C5.9255 11.8542 5.78178 11.795 5.632 11.795Z" fill="#646464"/>
<path id="&#236;&#130;&#172;&#234;&#176;&#129;&#237;&#152;&#149; 3340" d="M13.247 4.84799H8.584C8.29019 4.84799 8.052 5.08618 8.052 5.37999C8.052 5.67381 8.29019 5.91199 8.584 5.91199H13.247C13.5408 5.91199 13.779 5.67381 13.779 5.37999C13.779 5.08618 13.5408 4.84799 13.247 4.84799Z" fill="#646464"/>
<path id="&#236;&#130;&#172;&#234;&#176;&#129;&#237;&#152;&#149; 3341" d="M13.247 8.08499H8.584C8.29019 8.08499 8.052 8.32318 8.052 8.61699C8.052 8.91081 8.29019 9.14899 8.584 9.14899H13.247C13.5408 9.14899 13.779 8.91081 13.779 8.61699C13.779 8.32318 13.5408 8.08499 13.247 8.08499Z" fill="#646464"/>
<path id="&#236;&#130;&#172;&#234;&#176;&#129;&#237;&#152;&#149; 3342" d="M13.247 12.132H8.584C8.29019 12.132 8.052 12.3702 8.052 12.664C8.052 12.9578 8.29019 13.196 8.584 13.196H13.247C13.5408 13.196 13.779 12.9578 13.779 12.664C13.779 12.3702 13.5408 12.132 13.247 12.132Z" fill="#646464"/>
</g>
</svg>
