<svg width="16" height="16" viewBox="0 0 16 16" fill="none" xmlns="http://www.w3.org/2000/svg">
<g id="calender-icon">
<path id="&#237;&#140;&#168;&#236;&#138;&#164; 87808" d="M13.21 16H2.79199C2.42429 15.9989 2.06042 15.9253 1.72116 15.7835C1.3819 15.6417 1.07389 15.4344 0.814724 15.1736C0.555555 14.9127 0.350301 14.6034 0.21068 14.2632C0.0710598 13.9231 -0.000192724 13.5587 0.000991074 13.191V4.27304C0.00548377 3.53595 0.301581 2.83062 0.824566 2.31119C1.34755 1.79177 2.05489 1.5005 2.79199 1.50104H13.21C13.9471 1.5005 14.6544 1.79177 15.1774 2.31119C15.7004 2.83062 15.9965 3.53595 16.001 4.27304V13.191C16.0022 13.5587 15.9309 13.9231 15.7913 14.2632C15.6517 14.6034 15.4464 14.9127 15.1873 15.1736C14.9281 15.4344 14.6201 15.6417 14.2808 15.7835C13.9416 15.9253 13.5777 15.9989 13.21 16ZM2.79199 2.61604C2.3507 2.61549 1.92706 2.78932 1.61333 3.09967C1.29961 3.41003 1.12121 3.83176 1.11699 4.27304V13.191C1.11421 13.4126 1.15546 13.6325 1.23836 13.838C1.32125 14.0434 1.44413 14.2304 1.59987 14.388C1.7556 14.5456 1.94109 14.6707 2.14557 14.756C2.35004 14.8413 2.56943 14.8852 2.79099 14.885H13.21C13.4316 14.8852 13.6509 14.8413 13.8554 14.756C14.0599 14.6707 14.2454 14.5456 14.4011 14.388C14.5569 14.2304 14.6797 14.0434 14.7626 13.838C14.8455 13.6325 14.8868 13.4126 14.884 13.191V4.27304C14.8798 3.83194 14.7015 3.41035 14.388 3.10003C14.0745 2.7897 13.6511 2.61575 13.21 2.61604H2.79199Z" fill="#555555"/>
<path id="&#237;&#140;&#168;&#236;&#138;&#164; 87809" d="M13.21 16H2.79199C2.42429 15.9988 2.06042 15.9252 1.72116 15.7834C1.3819 15.6416 1.07389 15.4344 0.814724 15.1736C0.555555 14.9127 0.350301 14.6034 0.21068 14.2632C0.0710598 13.9231 -0.000192724 13.5587 0.000991074 13.191V6.11602C0.00125598 5.9682 0.0601621 5.82653 0.164779 5.7221C0.269395 5.61767 0.411173 5.55902 0.558991 5.55902H15.443C15.5908 5.55902 15.7326 5.61767 15.8372 5.7221C15.9418 5.82653 16.0007 5.9682 16.001 6.11602V13.191C16.0022 13.5587 15.9309 13.9231 15.7913 14.2632C15.6517 14.6034 15.4464 14.9127 15.1873 15.1736C14.9281 15.4344 14.6201 15.6416 14.2808 15.7834C13.9416 15.9252 13.5777 15.9988 13.21 16ZM1.11699 6.67402V13.191C1.11421 13.4126 1.15546 13.6325 1.23836 13.8379C1.32125 14.0434 1.44413 14.2304 1.59987 14.388C1.7556 14.5456 1.94109 14.6707 2.14557 14.756C2.35004 14.8413 2.56943 14.8852 2.79099 14.885H13.21C13.4316 14.8852 13.6509 14.8413 13.8554 14.756C14.0599 14.6707 14.2454 14.5456 14.4011 14.388C14.5569 14.2304 14.6797 14.0434 14.7626 13.8379C14.8455 13.6325 14.8868 13.4126 14.884 13.191V6.65102L1.11699 6.67402Z" fill="#555555"/>
<path id="&#237;&#140;&#168;&#236;&#138;&#164; 87810" d="M3.90698 4.07201C3.76242 4.07008 3.6241 4.01281 3.52048 3.91199C3.41687 3.81117 3.35585 3.67446 3.34998 3.53001V0.557012C3.34998 0.409154 3.40871 0.267351 3.51326 0.1628C3.61782 0.0582481 3.75962 -0.000488281 3.90748 -0.000488281C4.05533 -0.000488281 4.19714 0.0582481 4.30169 0.1628C4.40624 0.267351 4.46498 0.409154 4.46498 0.557012V3.53001C4.4591 3.67446 4.39808 3.81117 4.29447 3.91199C4.19085 4.01281 4.05153 4.07008 3.90698 4.07201Z" fill="#555555"/>
<path id="&#237;&#140;&#168;&#236;&#138;&#164; 87811" d="M8.00097 4.07201C7.85641 4.07008 7.71809 4.01281 7.61448 3.91199C7.51086 3.81117 7.44984 3.67446 7.44397 3.53001V0.557012C7.44397 0.409154 7.50271 0.267351 7.60726 0.1628C7.71181 0.0582481 7.85361 -0.000488281 8.00147 -0.000488281C8.14933 -0.000488281 8.29113 0.0582481 8.39568 0.1628C8.50023 0.267351 8.55897 0.409154 8.55897 0.557012V3.53001C8.5531 3.67446 8.49208 3.81117 8.38846 3.91199C8.28485 4.01281 8.14553 4.07008 8.00097 4.07201Z" fill="#555555"/>
<path id="&#237;&#140;&#168;&#236;&#138;&#164; 87812" d="M12.094 4.07201C11.9494 4.07008 11.8111 4.01281 11.7075 3.91199C11.6039 3.81117 11.5429 3.67446 11.537 3.53001V0.557012C11.537 0.409154 11.5957 0.267351 11.7003 0.1628C11.8048 0.0582481 11.9466 -0.000488281 12.0945 -0.000488281C12.2423 -0.000488281 12.3841 0.0582481 12.4887 0.1628C12.5933 0.267351 12.652 0.409154 12.652 0.557012V3.53001C12.6461 3.67446 12.5851 3.81117 12.4815 3.91199C12.3779 4.01281 12.2395 4.07008 12.095 4.07201H12.094Z" fill="#555555"/>
</g>
</svg>
