<svg width="16" height="16" viewBox="0 0 16 16" fill="none" xmlns="http://www.w3.org/2000/svg">
<path fill-rule="evenodd" clip-rule="evenodd" d="M11.2864 3.75643C11.4817 3.56117 11.7983 3.56117 11.9936 3.75643C12.1888 3.95169 12.1888 4.26828 11.9936 4.46354L4.21538 12.2417C4.02012 12.437 3.70353 12.437 3.50827 12.2417C3.31301 12.0465 3.31301 11.7299 3.50827 11.5346L3.99833 11.0446C3.08525 10.4412 2.22891 9.59482 1.37256 8.4866L1.14 8.25404L1.37256 7.90521C3.23302 5.34707 5.32605 4.18428 8.00046 4.18428C8.89027 4.18428 9.70285 4.31299 10.4639 4.57899L11.2864 3.75643ZM6.12985 8.91303L4.79872 10.2442C4.0316 9.79389 3.32991 9.14103 2.65163 8.25404C4.16325 6.16102 5.79116 5.34707 8.00046 5.34707C8.53293 5.34707 9.04281 5.39975 9.53203 5.51084L8.71025 6.33262C8.48957 6.24878 8.2502 6.20288 8.00011 6.20288C6.89554 6.20288 6.00011 7.09831 6.00011 8.20288C6.00011 8.45297 6.04601 8.69234 6.12985 8.91303ZM7.01545 8.02743L7.82466 7.21822C7.413 7.29107 7.0883 7.61577 7.01545 8.02743ZM6.89801 10.969C7.24954 11.0201 7.61621 11.0447 8.00046 11.0447C10.0935 11.0447 11.8377 10.1145 13.3493 8.13777C12.7712 7.38181 12.1591 6.7959 11.5065 6.36055L12.3077 5.5594C13.1077 6.14372 13.868 6.92124 14.6284 7.90521L14.8609 8.25404L14.6284 8.60288C12.6516 11.0447 10.6749 12.2075 8.00046 12.2075C7.26212 12.2075 6.57696 12.1189 5.93029 11.9368L6.89801 10.969ZM8.00011 10.2029C7.89405 10.2029 7.78992 10.1946 7.68833 10.1787L9.97595 7.8911C9.99185 7.9927 10.0001 8.09682 10.0001 8.20288C10.0001 9.30745 9.10468 10.2029 8.00011 10.2029Z" fill="#303030"/>
</svg>
