<svg width="36" height="36" viewBox="0 0 36 36" fill="none" xmlns="http://www.w3.org/2000/svg">
<path d="M18 36C27.9411 36 36 27.9411 36 18C36 8.05887 27.9411 0 18 0C8.05887 0 0 8.05887 0 18C0 27.9411 8.05887 36 18 36Z" fill="white"/>
<path d="M18 35.5C27.665 35.5 35.5 27.665 35.5 18C35.5 8.33502 27.665 0.5 18 0.5C8.33502 0.5 0.5 8.33502 0.5 18C0.5 27.665 8.33502 35.5 18 35.5Z" stroke="#D9D9D9"/>
<path d="M17.995 8.38699C17.1343 8.38673 16.282 8.556 15.4867 8.88512C14.6915 9.21425 13.9688 9.69679 13.36 10.3052C12.7512 10.9136 12.2683 11.636 11.9386 12.431C11.609 13.2261 11.4392 14.0783 11.439 14.939V20.049L9.98798 22.233C9.81349 22.5011 9.71438 22.8112 9.70107 23.1309C9.68775 23.4505 9.76072 23.7678 9.91231 24.0495C10.0639 24.3312 10.2885 24.5669 10.5626 24.7318C10.8367 24.8968 11.1501 24.9849 11.47 24.987H24.521C24.8426 24.9862 25.158 24.8984 25.4338 24.7329C25.7095 24.5674 25.9353 24.3303 26.0873 24.0468C26.2392 23.7634 26.3116 23.4441 26.2967 23.1228C26.2819 22.8015 26.1804 22.4902 26.003 22.222L24.552 20.051V14.939C24.5517 14.0782 24.3819 13.2259 24.0522 12.4308C23.7226 11.6357 23.2395 10.9133 22.6306 10.3048C22.0217 9.69643 21.2989 9.2139 20.5035 8.88483C19.7082 8.55577 18.8558 8.3866 17.995 8.38699Z" fill="#9197AB"/>
<path d="M17.996 27.605C18.5374 27.6044 19.0654 27.4361 19.5073 27.1233C19.9492 26.8105 20.2834 26.3685 20.464 25.858H15.528C15.7085 26.3685 16.0427 26.8105 16.4846 27.1233C16.9266 27.4361 17.4545 27.6044 17.996 27.605Z" fill="#9197AB"/>
</svg>
