<svg width="34" height="34" viewBox="0 0 34 34" fill="none" xmlns="http://www.w3.org/2000/svg">
<path d="M17 34C26.3888 34 34 26.3888 34 17C34 7.61116 26.3888 0 17 0C7.61116 0 0 7.61116 0 17C0 26.3888 7.61116 34 17 34Z" fill="#798BCB"/>
<g clip-path="url(#clip0_72_1043)">
<path d="M24.14 17.94C24.18 17.64 24.2 17.33 24.2 17C24.2 16.68 24.18 16.36 24.13 16.06L26.16 14.48C26.34 14.34 26.39 14.07 26.28 13.87L24.36 10.55C24.24 10.33 23.99 10.26 23.77 10.33L21.38 11.29C20.88 10.91 20.35 10.59 19.76 10.35L19.4 7.80999C19.36 7.56999 19.16 7.39999 18.92 7.39999H15.08C14.84 7.39999 14.65 7.56999 14.61 7.80999L14.25 10.35C13.66 10.59 13.12 10.92 12.63 11.29L10.24 10.33C10.02 10.25 9.77 10.33 9.65 10.55L7.74 13.87C7.62 14.08 7.66 14.34 7.86 14.48L9.89 16.06C9.84 16.36 9.8 16.69 9.8 17C9.8 17.31 9.82 17.64 9.87 17.94L7.84 19.52C7.66 19.66 7.61 19.93 7.72 20.13L9.64 23.45C9.76 23.67 10.01 23.74 10.23 23.67L12.62 22.71C13.12 23.09 13.65 23.41 14.24 23.65L14.6 26.19C14.65 26.43 14.84 26.6 15.08 26.6H18.92C19.16 26.6 19.36 26.43 19.39 26.19L19.75 23.65C20.34 23.41 20.88 23.09 21.37 22.71L23.76 23.67C23.98 23.75 24.23 23.67 24.35 23.45L26.27 20.13C26.39 19.91 26.34 19.66 26.15 19.52L24.14 17.94ZM17 20.6C15.02 20.6 13.4 18.98 13.4 17C13.4 15.02 15.02 13.4 17 13.4C18.98 13.4 20.6 15.02 20.6 17C20.6 18.98 18.98 20.6 17 20.6Z" fill="white"/>
</g>
<defs>
<clipPath id="clip0_72_1043">
<rect width="24" height="24" fill="white" transform="translate(5 5)"/>
</clipPath>
</defs>
</svg>
