<svg width="16" height="16" viewBox="0 0 16 16" fill="none" xmlns="http://www.w3.org/2000/svg">
<path fill-rule="evenodd" clip-rule="evenodd" d="M1.37256 8.48661C3.3493 11.0447 5.32605 12.2075 8.00046 12.2075C10.6749 12.2075 12.6516 11.0447 14.6284 8.60289L14.8609 8.25405L14.6284 7.90521C12.6516 5.34707 10.6749 4.18428 8.00046 4.18428C5.32605 4.18428 3.23302 5.34707 1.37256 7.90521L1.14 8.25405L1.37256 8.48661ZM8.00046 11.0447C5.79116 11.0447 4.16325 10.2308 2.65163 8.25405C4.16325 6.16102 5.79116 5.34707 8.00046 5.34707C10.0935 5.34707 11.8377 6.16102 13.3493 8.13777C11.8377 10.1145 10.0935 11.0447 8.00046 11.0447ZM9.00011 8.20288C9.00011 8.75517 8.55239 9.20288 8.00011 9.20288C7.44782 9.20288 7.00011 8.75517 7.00011 8.20288C7.00011 7.6506 7.44782 7.20288 8.00011 7.20288C8.55239 7.20288 9.00011 7.6506 9.00011 8.20288ZM10.0001 8.20288C10.0001 9.30745 9.10468 10.2029 8.00011 10.2029C6.89554 10.2029 6.00011 9.30745 6.00011 8.20288C6.00011 7.09831 6.89554 6.20288 8.00011 6.20288C9.10468 6.20288 10.0001 7.09831 10.0001 8.20288Z" fill="#303030"/>
</svg>
